<svg xmlns="http://www.w3.org/2000/svg" width="512" height="512" viewBox="0 0 512 512" role="img" aria-label="ChatGPT Markdown Exporter logo">
  <defs>
    <linearGradient id="sky" x1="104" y1="76" x2="408" y2="438" gradientUnits="userSpaceOnUse">
      <stop stop-color="#9ee7cf"/>
      <stop offset="1" stop-color="#246b55"/>
    </linearGradient>
    <filter id="softShadow" x="54" y="54" width="404" height="416" filterUnits="userSpaceOnUse" color-interpolation-filters="sRGB">
      <feDropShadow dx="0" dy="18" stdDeviation="18" flood-color="#0c2d24" flood-opacity=".24"/>
    </filter>
  </defs>
  <rect width="512" height="512" rx="112" fill="#f6fbf7"/>
  <circle cx="384" cy="130" r="54" fill="#f8d56f"/>
  <path d="M92 366c48-58 95-87 140-87 34 0 58 16 87 35 31 20 67 43 123 45v69H92z" fill="#d5efe5"/>
  <path d="M70 408c59-71 119-106 180-106 44 0 77 18 111 37 27 15 55 31 91 38v59H70z" fill="#a8d9c8"/>
  <g filter="url(#softShadow)">
    <rect x="119" y="91" width="274" height="330" rx="36" fill="url(#sky)"/>
    <path d="M170 166h172M170 218h132M170 270h172" stroke="#f8fbf7" stroke-width="25" stroke-linecap="round"/>
    <path d="M256 363l65-65h-39v-86h-52v86h-39z" fill="#f8fbf7"/>
  </g>
  <path d="M147 402c42 24 91 35 143 30 35-3 67-14 94-31" fill="none" stroke="#176b48" stroke-width="18" stroke-linecap="round" opacity=".42"/>
</svg>
